<svg xmlns="http://www.w3.org/2000/svg" fill="none" viewBox="0 0 16 16" class="design-iconfont">
  <path fill-rule="evenodd" clip-rule="evenodd" d="M8.3689 1.44671C8.14552 1.29779 7.85452 1.29779 7.63115 1.44671L1.63115 5.44671C1.44614 5.57004 1.33502 5.77768 1.33502 6.00002V14C1.33502 14.3673 1.63275 14.665 2.00002 14.665H14C14.3673 14.665 14.665 14.3673 14.665 14V6.00002C14.665 5.77768 14.5539 5.57004 14.3689 5.44671L8.3689 1.44671ZM8.66502 13.335V10C8.66502 9.63275 8.36729 9.33502 8.00002 9.33502C7.63275 9.33502 7.33502 9.63275 7.33502 10V13.335H2.66502V6.35592L8.00002 2.79925L13.335 6.35592V13.335H8.66502Z" />
</svg>
