<svg xmlns="http://www.w3.org/2000/svg" fill="none" viewBox="0 0 16 16" class="design-iconfont">
  <path d="M7.47023 5.52977C7.21053 5.27008 6.78947 5.27008 6.52977 5.52977L4.52977 7.52977C4.27008 7.78947 4.27008 8.21053 4.52977 8.47023C4.78947 8.72992 5.21053 8.72992 5.47023 8.47023L7 6.94045L8.52977 8.47023C8.78947 8.72992 9.21053 8.72992 9.47023 8.47023L11.4702 6.47023C11.7299 6.21053 11.7299 5.78947 11.4702 5.52977C11.2105 5.27008 10.7895 5.27008 10.5298 5.52977L9 7.05955L7.47023 5.52977Z" />
  <path fill-rule="evenodd" clip-rule="evenodd" d="M0.834961 2.00002C0.834961 1.63275 1.13269 1.33502 1.49996 1.33502H14.5C14.8672 1.33502 15.165 1.63275 15.165 2.00002V12C15.165 12.3673 14.8672 12.665 14.5 12.665H1.49996C1.13269 12.665 0.834961 12.3673 0.834961 12V2.00002ZM2.16496 2.66502V11.335H13.835V2.66502H2.16496Z" />
  <path d="M3.33496 14.5C3.33496 14.1328 3.63269 13.835 3.99996 13.835H12C12.3672 13.835 12.665 14.1328 12.665 14.5C12.665 14.8673 12.3672 15.165 12 15.165H3.99996C3.63269 15.165 3.33496 14.8673 3.33496 14.5Z" />
</svg>
