<svg xmlns="http://www.w3.org/2000/svg" fill="none" viewBox="0 0 16 16" class="design-iconfont">
  <path fill-rule="evenodd" clip-rule="evenodd" d="M8 5.00002C6.34314 5.00002 5 6.34316 5 8.00002C5 9.65687 6.34314 11 8 11C9.65686 11 11 9.65687 11 8.00002C11 6.34316 9.65686 5.00002 8 5.00002ZM6.33333 8.00002C6.33333 7.07954 7.07952 6.33335 8 6.33335C8.92048 6.33335 9.66667 7.07954 9.66667 8.00002C9.66667 8.92049 8.92048 9.66668 8 9.66668C7.07952 9.66668 6.33333 8.92049 6.33333 8.00002Z" />
  <path fill-rule="evenodd" clip-rule="evenodd" d="M6.81118 1.27144C6.66725 0.989318 6.3447 0.847402 6.03947 0.931895C4.89015 1.25004 3.855 1.84049 3.00753 2.6285C2.79185 2.82905 2.73331 3.14736 2.86354 3.41151C2.95069 3.58828 2.99996 3.78746 2.99996 4.00005C2.99996 4.73643 2.40301 5.33339 1.66663 5.33339L1.64807 5.33325C1.35336 5.32905 1.09086 5.51887 1.00253 5.80007C0.784117 6.4954 0.666626 7.23464 0.666626 8.00005C0.666626 8.50525 0.717805 8.99914 0.815478 9.47668C0.883898 9.8112 1.19401 10.0399 1.53382 10.0066C1.57748 10.0023 1.62178 10.0001 1.66663 10.0001C2.40301 10.0001 2.99996 10.597 2.99996 11.3334C2.99996 11.6613 2.88242 11.9601 2.68639 12.1924C2.46619 12.4534 2.47878 12.8386 2.71556 13.0846C3.58091 13.9838 4.6745 14.6633 5.90433 15.0294C6.25222 15.133 6.61904 14.9392 6.72957 14.5935C6.90164 14.0552 7.40631 13.6667 7.99996 13.6667C8.5936 13.6667 9.09828 14.0552 9.27035 14.5935C9.38088 14.9392 9.7477 15.133 10.0956 15.0294C11.3254 14.6633 12.419 13.9838 13.2844 13.0846C13.5211 12.8386 13.5337 12.4534 13.3135 12.1924C13.1175 11.9601 13 11.6613 13 11.3334C13 10.597 13.5969 10.0001 14.3333 10.0001C14.3782 10.0001 14.4224 10.0023 14.4661 10.0066C14.8059 10.0399 15.116 9.8112 15.1844 9.47668C15.2821 8.99914 15.3333 8.50525 15.3333 8.00005C15.3333 7.23463 15.2158 6.4954 14.9974 5.80008C14.9091 5.51887 14.6466 5.32904 14.3518 5.33325L14.3333 5.33339C13.5969 5.33339 13 4.73643 13 4.00005C13 3.78746 13.0492 3.58828 13.1364 3.41151C13.2666 3.14736 13.2081 2.82905 12.9924 2.6285C12.1449 1.84049 11.1098 1.25004 9.96045 0.931895C9.65522 0.847402 9.33267 0.989318 9.18874 1.27144C8.9674 1.70531 8.51751 2.00006 7.99996 2.00006C7.48241 2.00006 7.03252 1.70531 6.81118 1.27144ZM4.33329 4.00005C4.33329 3.76534 4.30282 3.53717 4.24551 3.31957C4.75067 2.91377 5.32253 2.58833 5.94174 2.3622C6.43031 2.95463 7.17055 3.3334 7.99996 3.3334C8.82937 3.3334 9.5696 2.95463 10.0582 2.3622C10.6774 2.58832 11.2493 2.91377 11.7544 3.31957C11.6971 3.53717 11.6666 3.76534 11.6666 4.00005C11.6666 5.3046 12.6034 6.39036 13.8409 6.62136C13.9449 7.06353 14 7.525 14 8.00005C14 8.23448 13.9865 8.46555 13.9605 8.69257C12.6642 8.87391 11.6666 9.98715 11.6666 11.3334C11.6666 11.7596 11.767 12.1631 11.9451 12.5208C11.4451 12.9575 10.8723 13.3124 10.2477 13.565C9.77423 12.8247 8.94503 12.3334 7.99996 12.3334C7.05489 12.3334 6.22569 12.8247 5.75217 13.565C5.12758 13.3124 4.55483 12.9575 4.05482 12.5208C4.23296 12.1631 4.33329 11.7596 4.33329 11.3334C4.33329 9.98715 3.3357 8.87391 2.03943 8.69257C2.01337 8.46555 1.99996 8.23448 1.99996 8.00005C1.99996 7.525 2.05504 7.06352 2.15896 6.62136C3.39653 6.39037 4.33329 5.3046 4.33329 4.00005Z" />
</svg>
